<svg width="461" height="503" viewBox="0 0 461 503" fill="none" xmlns="http://www.w3.org/2000/svg">
<path d="M74.3757 482.216V407.716C74.3756 384.716 79.3757 366.716 106.876 359.036L427.376 271.216C436.876 358.216 374.876 422.716 291.376 424.716H176.376L99.6725 497.716C87.8757 507.216 74.8757 502.716 74.3757 482.216Z" fill="#17252E"/>
<path d="M11.3751 179.215L2.37522 147.715C-7.62489 113.215 16.3754 95.2154 29.3754 91.2154L351.376 3.21552C385.875 -6.02864 409.875 4.21547 418.375 39.7156L425.876 67.2155C394.375 77.7154 389.375 101.715 392.875 122.215C396.375 142.715 419.875 163.215 450.703 155.216L458.876 185.716C465.172 209.215 450.703 231.616 429.016 237.427L95.9537 328.616C73.0159 334.762 51.1722 321.216 44.8754 297.716L37.1997 269.069C63.3751 262.716 81.8751 235.715 71.3756 206.216C61.8751 184.215 38.8751 172.215 11.3751 179.215Z" fill="#17252E"/>
</svg>
